<svg width="132.000000" height="132.000000" viewBox="0 0 132 132" fill="none" xmlns="http://www.w3.org/2000/svg" xmlns:xlink="http://www.w3.org/1999/xlink">
	<desc>
			Created with Pixso.
	</desc>
	<defs>
		<clipPath id="clip2_85">
			<rect id="контент" width="132.000000" height="132.000000" fill="white" fill-opacity="0"/>
		</clipPath>
	</defs>
	<rect id="контент" width="132.000000" height="132.000000" fill="#FFFFFF" fill-opacity="0"/>
	<g clip-path="url(#clip2_85)">
		<path id="Vector 1" d="M66.2088 3L66.2088 14L66.2088 50.5232L16 50.5232M67.9143 116L67.9143 129L20.8841 107.676C17.9102 106.328 16 103.365 16 100.099L16 50.5232L64.2537 3L117 3L117 82.3499C117 85.074 115.666 87.6255 113.43 89.1807L67.9143 120.825L67.9143 116L67.9143 105.462L102.176 83.4558C104.559 81.9253 106 79.2878 106 76.4558L106 14L66.2088 14M28.5 50.5232L28.5 92.6533C28.5 95.9104 30.4007 98.8679 33.3635 100.221L67.9143 116" stroke="#000000" stroke-opacity="1.000000" stroke-width="3.000000"/>
	</g>
</svg>
