<svg width="132.000000" height="132.000000" viewBox="0 0 132 132" fill="none" xmlns="http://www.w3.org/2000/svg" xmlns:xlink="http://www.w3.org/1999/xlink">
	<desc>
			Created with Pixso.
	</desc>
	<defs>
		<clipPath id="clip2_172">
			<rect id="контент" width="132.000000" height="132.000000" fill="white" fill-opacity="0"/>
		</clipPath>
	</defs>
	<rect id="контент" width="132.000000" height="132.000000" fill="#FFFFFF" fill-opacity="0"/>
	<g clip-path="url(#clip2_172)">
		<path id="Vector" d="M117.857 33C123.064 33 127.286 37.2214 127.286 42.4285L127.286 117.857C127.286 123.064 123.064 127.286 117.857 127.286L14.1429 127.286C8.93561 127.286 4.71429 123.064 4.71429 117.857L4.71429 42.4285C4.71429 37.2214 8.93561 33 14.1429 33L117.857 33Z" stroke="#000001" stroke-opacity="1.000000" stroke-width="3.000000" stroke-linejoin="round"/>
		<path id="Vector" d="M84.8572 4.71436C87.3578 4.71436 89.756 5.70776 91.5242 7.47583C93.2924 9.24414 94.2857 11.6423 94.2857 14.1428L94.2857 33L37.7143 33L37.7143 14.1428C37.7143 11.6423 38.7076 9.24414 40.4759 7.47583C42.2441 5.70776 44.6423 4.71436 47.1429 4.71436L84.8572 4.71436Z" stroke="#000001" stroke-opacity="1.000000" stroke-width="3.000000" stroke-linejoin="round"/>
		<path id="Vector" d="M33 66L99 66" stroke="#000001" stroke-opacity="1.000000" stroke-width="3.000000" stroke-linejoin="round" stroke-linecap="round"/>
		<path id="Vector" d="M33 94.2856L99 94.2856" stroke="#000001" stroke-opacity="1.000000" stroke-width="3.000000" stroke-linejoin="round" stroke-linecap="round"/>
	</g>
</svg>
