<svg width="14.000000" height="20.000000" viewBox="0 0 14 20" fill="none" xmlns="http://www.w3.org/2000/svg" xmlns:xlink="http://www.w3.org/1999/xlink">
	<desc>
			Created with Pixso.
	</desc>
	<defs/>
	<path id="Vector" d="M7 9.5C6.33691 9.5 5.70105 9.23682 5.23218 8.76758C4.76343 8.29883 4.5 7.66309 4.5 7C4.5 6.33691 4.76343 5.70117 5.23218 5.23242C5.70105 4.76318 6.33691 4.5 7 4.5C7.66309 4.5 8.29895 4.76318 8.76782 5.23242C9.23657 5.70117 9.5 6.33691 9.5 7C9.5 7.32812 9.4353 7.65332 9.30969 7.95654C9.18408 8.26025 8.99988 8.53564 8.76782 8.76758C8.53564 9 8.26001 9.18408 7.95667 9.30957C7.65344 9.43555 7.32825 9.5 7 9.5ZM7 0C5.14343 0 3.36304 0.737305 2.05029 2.05029C0.737549 3.36279 0 5.14355 0 7C0 12.25 7 20 7 20C7 20 14 12.25 14 7C14 5.14355 13.2625 3.36279 11.9497 2.05029C10.637 0.737305 8.85657 0 7 0Z" fill="#EAB847" fill-opacity="1.000000" fill-rule="nonzero"/>
</svg>
