<svg width="12.000000" height="17.000000" viewBox="0 0 12 17" fill="none" xmlns="http://www.w3.org/2000/svg" xmlns:xlink="http://www.w3.org/1999/xlink">
	<desc>
			Created with Pixso.
	</desc>
	<defs/>
	<path id="Vector" d="M6 8.07501C5.43164 8.07501 4.88672 7.8511 4.48486 7.45261C4.08301 7.05408 3.85718 6.51358 3.85718 5.95001C3.85718 5.38641 4.08301 4.84592 4.48486 4.44739C4.88672 4.04889 5.43164 3.82501 6 3.82501C6.56836 3.82501 7.11328 4.04889 7.51514 4.44739C7.91699 4.84592 8.14282 5.38641 8.14282 5.95001C8.14282 6.22906 8.0874 6.50537 7.97974 6.76321C7.87207 7.02103 7.71411 7.25528 7.51514 7.45261C7.31616 7.64993 7.08008 7.80646 6.82007 7.91324C6.56006 8.02005 6.28149 8.07501 6 8.07501ZM6 0C4.40869 0 2.88257 0.626862 1.75732 1.74271C0.63208 2.85855 0 4.37195 0 5.95001C0 10.4125 6 17 6 17C6 17 12 10.4125 12 5.95001C12 4.37195 11.3679 2.85855 10.2427 1.74271C9.11743 0.626862 7.59131 0 6 0Z" fill="#EAB847" fill-opacity="1.000000" fill-rule="nonzero"/>
</svg>
