<svg width="21.000000" height="21.000000" viewBox="0 0 21 21" xmlns="http://www.w3.org/2000/svg" xmlns:xlink="http://www.w3.org/1999/xlink">
	<desc>
			Created with Pixso.
	</desc>
	<defs>
		<clipPath id="clip2010_1261">
			<rect id="ic:baseline-call" width="21.000000" height="21.000000" fill="white" fill-opacity="0"/>
		</clipPath>
	</defs>
	<rect id="ic:baseline-call" width="21.000000" height="21.000000" fill-opacity="0"/>
	<g clip-path="url(#clip2010_1261)">
		<path id="Vector" d="M17.5088 13.4575C16.4326 13.4575 15.3911 13.2825 14.4199 12.9675C14.2681 12.9159 14.104 12.9083 13.9478 12.9454C13.7915 12.9825 13.6489 13.063 13.5361 13.1775L12.1626 14.9012C9.68604 13.72 7.36768 11.4887 6.13379 8.92499L7.83984 7.4725C8.07617 7.22751 8.14648 6.88626 8.0498 6.57999C7.72607 5.60876 7.56006 4.5675 7.56006 3.49124C7.56006 3.01874 7.16602 2.625 6.69385 2.625L3.66602 2.625C3.19385 2.625 2.625 2.83499 2.625 3.49124C2.625 11.62 9.38867 18.375 17.5088 18.375C18.1299 18.375 18.375 17.8238 18.375 17.3425L18.375 14.3238C18.375 13.8513 17.9814 13.4575 17.5088 13.4575Z" fill="#EAB847" fill-opacity="1.000000" fill-rule="nonzero"/>
	</g>
</svg>
